<?xml version="1.0" encoding="UTF-8"?>
<svg width="560px" height="430px" viewBox="0 0 560 430" version="1.1" xmlns="http://www.w3.org/2000/svg" xmlns:xlink="http://www.w3.org/1999/xlink">
    <!-- Generator: Sketch 52.2 (67145) - http://www.bohemiancoding.com/sketch -->
    <title>Shield</title>
    <desc>Created with Sketch.</desc>
    <g id="Page-1" stroke="none" stroke-width="1" fill="none" fill-rule="evenodd">
        <rect id="Back" x="-321" y="-462" width="1200" height="1200"></rect>
        <g id="Logo" fill="#FFFFFF">
            <path d="M170.049365,0.0356393014 C166.342108,0.00283172231 161.975922,2.01791589 159.600004,4.85970042 L113.728102,59.7260932 C111.171905,62.7835056 110.30035,67.7068961 111.650634,71.4576836 L162.940492,213.929511 C164.037975,216.978075 166.757406,220.533462 169.409832,222.39016 L272.855544,294.802159 C276.386033,297.273501 281.616494,297.271732 285.144456,294.802159 L388.590168,222.39016 C391.245989,220.531085 393.961292,216.98011 395.059508,213.929511 L446.349366,71.4576836 C447.704335,67.6938808 446.809274,62.7612611 444.219295,59.7142265 L398.400098,5.80928934 C396.019903,3.00905953 391.669756,1 387.994882,1 L283.005118,1 C280.8095,1 277.233322,0.984169896 275.039128,0.964752249 L170.049365,0.0356393014 Z M169.960872,10.0352478 L274.950635,10.9643607 C277.17432,10.9840393 280.779996,11 283.005118,11 L387.994882,11 C388.285544,11 388.875019,11.1490173 389.487497,11.4318821 C390.099544,11.7145482 390.593762,12.0658408 390.780705,12.2857735 L436.599902,66.1907107 C436.869542,66.5079349 437.081835,67.677868 436.940492,68.0704889 L385.650634,210.542316 C385.251765,211.650287 383.819958,213.522751 382.855544,214.197841 L279.409832,286.60984 C279.323966,286.669946 175.144456,214.197841 175.144456,214.197841 C174.183054,213.52486 172.747344,211.647812 172.349366,210.542316 L121.059508,68.0704889 C120.912706,67.6627063 121.123708,66.4707612 121.399996,66.1402996 L167.271898,11.2739068 C167.447403,11.0639893 167.923633,10.7226879 168.516974,10.4488487 C169.111513,10.1744567 169.682754,10.0327865 169.960872,10.0352478 Z" id="Shield" fill-rule="nonzero"></path>
            <path d="M320,137 L345,71 C345.875386,68.6871277 348.272862,67 350,67 L372,67 C374.370448,67 375.530529,68.6849631 375,71 L337,174" id="W"></path>
            <path d="M182.873216,137 L207.873216,71 C208.748603,68.6871277 211.146078,67 212.873216,67 L234.873216,67 C237.243664,67 238.403745,68.6849631 237.873216,71 L199.873216,174" id="W" transform="translate(210.436608, 120.500000) scale(-1, 1) translate(-210.436608, -120.500000) "></path>
            <path d="M277,70 C278,68 278,67 279.5,67 C281,67 281,68 282,70 L333,182 L323,209 C322.225738,211.322864 321.010864,211.998368 320,212 C318.989136,211.998368 318.044298,211.372471 317,209 L281,131 C279.956144,129.426154 278.436665,129.42902 278,131 L241,210 C239.958072,211.579889 239.407174,212.031218 238,212 C236.592826,211.965518 235.979574,211.51633 235,209 L225,182" id="W"></path>
        </g>
        <path d="M25.24,418.6 C18.1466312,418.6 12.7466852,416.666686 9.04,412.8 C5.3333148,408.933314 3.346668,403.640034 3.08,396.92 C3.0266664,395.479993 3,393.13335 3,389.88 C3,386.573317 3.0266664,384.173341 3.08,382.68 C3.346668,375.959966 5.3333148,370.666686 9.04,366.8 C12.7466852,362.933314 18.1466312,361 25.24,361 C29.9866904,361 34.0133168,361.839992 37.32,363.52 C40.6266832,365.200008 43.1199916,367.399986 44.8,370.12 C46.4800084,372.840014 47.3999992,375.746651 47.56,378.84 C47.56,379.320002 47.3866684,379.706665 47.04,380 C46.6933316,380.293335 46.2800024,380.44 45.8,380.44 L41.8,380.44 C41.266664,380.44 40.8400016,380.306668 40.52,380.04 C40.1999984,379.773332 39.9600008,379.320003 39.8,378.68 C38.8933288,374.573313 37.2533452,371.693342 34.88,370.04 C32.5066548,368.386658 29.2933536,367.56 25.24,367.56 C15.9599536,367.56 11.1333352,372.733282 10.76,383.08 C10.7066664,384.520007 10.68,386.733318 10.68,389.72 C10.68,392.706682 10.7066664,394.973326 10.76,396.52 C11.1333352,406.813385 15.9599536,411.96 25.24,411.96 C29.24002,411.96 32.439988,411.133342 34.84,409.48 C37.240012,407.826658 38.8933288,404.973354 39.8,400.92 C39.9600008,400.279997 40.1999984,399.826668 40.52,399.56 C40.8400016,399.293332 41.266664,399.16 41.8,399.16 L45.8,399.16 C46.2800024,399.16 46.6933316,399.306665 47.04,399.6 C47.3866684,399.893335 47.56,400.279998 47.56,400.76 C47.3999992,403.853349 46.4800084,406.759986 44.8,409.48 C43.1199916,412.200014 40.6266832,414.399992 37.32,416.08 C34.0133168,417.760008 29.9866904,418.6 25.24,418.6 Z M54.04,417.8 C53.6133312,417.8 53.2400016,417.640002 52.92,417.32 C52.5999984,416.999998 52.44,416.626669 52.44,416.2 L52.6,415.32 L72.44,363.56 C72.8666688,362.386661 73.7199936,361.8 75,361.8 L80.12,361.8 C81.4000064,361.8 82.2533312,362.386661 82.68,363.56 L102.52,415.32 L102.68,416.2 C102.68,416.626669 102.506668,416.999998 102.16,417.32 C101.813332,417.640002 101.426669,417.8 101,417.8 L97.24,417.8 C96.706664,417.8 96.2666684,417.653335 95.92,417.36 C95.5733316,417.066665 95.3466672,416.760002 95.24,416.44 L90.76,404.92 L64.28,404.92 L59.88,416.44 C59.4533312,417.346671 58.7866712,417.8 57.88,417.8 L54.04,417.8 Z M66.6,398.28 L88.52,398.28 L77.56,369.56 L66.6,398.28 Z M113.08,417.8 C112.546664,417.8 112.120002,417.626668 111.8,417.28 C111.479998,416.933332 111.32,416.493336 111.32,415.96 L111.32,363.72 C111.32,363.13333 111.479998,362.666668 111.8,362.32 C112.120002,361.973332 112.546664,361.8 113.08,361.8 L133.32,361.8 C139.346697,361.8 144.079983,363.253319 147.52,366.16 C150.960017,369.066681 152.68,373.293306 152.68,378.84 C152.68,384.386694 150.960017,388.599986 147.52,391.48 C144.079983,394.360014 139.346697,395.8 133.32,395.8 L118.92,395.8 L118.92,415.96 C118.92,416.493336 118.746668,416.933332 118.4,417.28 C118.053332,417.626668 117.613336,417.8 117.08,417.8 L113.08,417.8 Z M132.92,389.32 C140.973374,389.32 145,385.826702 145,378.84 C145,375.42665 144.00001,372.813342 142,371 C139.99999,369.186658 136.973354,368.28 132.92,368.28 L118.92,368.28 L118.92,389.32 L132.92,389.32 Z M164.36,417.8 C163.826664,417.8 163.400002,417.626668 163.08,417.28 C162.759998,416.933332 162.6,416.493336 162.6,415.96 L162.6,363.64 C162.6,363.106664 162.759998,362.666668 163.08,362.32 C163.400002,361.973332 163.826664,361.8 164.36,361.8 L168.36,361.8 C168.94667,361.8 169.399998,361.959998 169.72,362.28 C170.040002,362.600002 170.2,363.05333 170.2,363.64 L170.2,415.96 C170.2,416.493336 170.026668,416.933332 169.68,417.28 C169.333332,417.626668 168.893336,417.8 168.36,417.8 L164.36,417.8 Z M198.36,417.8 C197.826664,417.8 197.386668,417.626668 197.04,417.28 C196.693332,416.933332 196.52,416.493336 196.52,415.96 L196.52,368.68 L181.08,368.68 C180.546664,368.68 180.106668,368.506668 179.76,368.16 C179.413332,367.813332 179.24,367.373336 179.24,366.84 L179.24,363.72 C179.24,363.13333 179.413332,362.666668 179.76,362.32 C180.106668,361.973332 180.546664,361.8 181.08,361.8 L219.48,361.8 C220.06667,361.8 220.519998,361.973332 220.84,362.32 C221.160002,362.666668 221.32,363.13333 221.32,363.72 L221.32,366.84 C221.32,367.373336 221.146668,367.813332 220.8,368.16 C220.453332,368.506668 220.013336,368.68 219.48,368.68 L204.12,368.68 L204.12,415.96 C204.12,416.493336 203.933335,416.933332 203.56,417.28 C203.186665,417.626668 202.733336,417.8 202.2,417.8 L198.36,417.8 Z M220.68,417.8 C220.253331,417.8 219.880002,417.640002 219.56,417.32 C219.239998,416.999998 219.08,416.626669 219.08,416.2 L219.24,415.32 L239.08,363.56 C239.506669,362.386661 240.359994,361.8 241.64,361.8 L246.76,361.8 C248.040006,361.8 248.893331,362.386661 249.32,363.56 L269.16,415.32 L269.32,416.2 C269.32,416.626669 269.146668,416.999998 268.8,417.32 C268.453332,417.640002 268.066669,417.8 267.64,417.8 L263.88,417.8 C263.346664,417.8 262.906668,417.653335 262.56,417.36 C262.213332,417.066665 261.986667,416.760002 261.88,416.44 L257.4,404.92 L230.92,404.92 L226.52,416.44 C226.093331,417.346671 225.426671,417.8 224.52,417.8 L220.68,417.8 Z M233.24,398.28 L255.16,398.28 L244.2,369.56 L233.24,398.28 Z M279.72,417.8 C279.186664,417.8 278.760002,417.626668 278.44,417.28 C278.119998,416.933332 277.96,416.493336 277.96,415.96 L277.96,363.64 C277.96,363.106664 278.119998,362.666668 278.44,362.32 C278.760002,361.973332 279.186664,361.8 279.72,361.8 L283.72,361.8 C284.30667,361.8 284.759998,361.959998 285.08,362.28 C285.400002,362.600002 285.56,363.05333 285.56,363.64 L285.56,415.96 C285.56,416.493336 285.386668,416.933332 285.04,417.28 C284.693332,417.626668 284.253336,417.8 283.72,417.8 L279.72,417.8 Z M301.4,417.8 C300.866664,417.8 300.440002,417.626668 300.12,417.28 C299.799998,416.933332 299.64,416.493336 299.64,415.96 L299.64,363.72 C299.64,363.13333 299.799998,362.666668 300.12,362.32 C300.440002,361.973332 300.866664,361.8 301.4,361.8 L304.92,361.8 C305.453336,361.8 305.853332,361.906666 306.12,362.12 C306.386668,362.333334 306.653332,362.599998 306.92,362.92 L333.72,404.2 L333.72,363.72 C333.72,363.13333 333.893332,362.666668 334.24,362.32 C334.586668,361.973332 335.026664,361.8 335.56,361.8 L339.16,361.8 C339.74667,361.8 340.213332,361.973332 340.56,362.32 C340.906668,362.666668 341.08,363.13333 341.08,363.72 L341.08,415.88 C341.08,416.413336 340.906668,416.866665 340.56,417.24 C340.213332,417.613335 339.773336,417.8 339.24,417.8 L335.64,417.8 C334.733329,417.8 334.093335,417.42667 333.72,416.68 L306.92,375.8 L306.92,415.96 C306.92,416.493336 306.746668,416.933332 306.4,417.28 C306.053332,417.626668 305.613336,417.8 305.08,417.8 L301.4,417.8 Z M356.84,417.8 C356.306664,417.8 355.880002,417.626668 355.56,417.28 C355.239998,416.933332 355.08,416.493336 355.08,415.96 L355.08,363.72 C355.08,363.13333 355.239998,362.666668 355.56,362.32 C355.880002,361.973332 356.306664,361.8 356.84,361.8 L389.72,361.8 C390.30667,361.8 390.773332,361.973332 391.12,362.32 C391.466668,362.666668 391.64,363.13333 391.64,363.72 L391.64,366.6 C391.64,367.133336 391.466668,367.559998 391.12,367.88 C390.773332,368.200002 390.30667,368.36 389.72,368.36 L362.44,368.36 L362.44,386.2 L387.96,386.2 C388.54667,386.2 389.013332,386.373332 389.36,386.72 C389.706668,387.066668 389.88,387.53333 389.88,388.12 L389.88,390.84 C389.88,391.373336 389.706668,391.813332 389.36,392.16 C389.013332,392.506668 388.54667,392.68 387.96,392.68 L362.44,392.68 L362.44,411.16 L390.36,411.16 C390.94667,411.16 391.413332,411.333332 391.76,411.68 C392.106668,412.026668 392.28,412.49333 392.28,413.08 L392.28,415.96 C392.28,416.493336 392.093335,416.933332 391.72,417.28 C391.346665,417.626668 390.893336,417.8 390.36,417.8 L356.84,417.8 Z M490.0725,361.64 L504.7925,361.64 L489.1125,417.8 L473.4325,417.8 L463.5925,382.2 L453.8325,417.8 L438.1525,417.8 L422.2325,361.64 L436.8725,361.64 L446.6325,402.04 L456.6325,361.64 L472.1525,361.64 L481.7525,401.4 L490.0725,361.64 Z M554.1525,378.84 C554.1525,382.626686 552.792514,386.279982 550.0725,389.8 C548.632493,391.613342 546.485848,393.093328 543.6325,394.24 C540.779152,395.386672 537.405853,395.96 533.5125,395.96 L525.0325,395.96 L525.0325,417.8 L511.3525,417.8 L511.3525,361.64 L533.5125,361.64 C540.019199,361.64 545.085815,363.319983 548.7125,366.68 C552.339185,370.040017 554.1525,374.09331 554.1525,378.84 Z M525.0325,385.56 L533.5125,385.56 C535.59251,385.56 537.232494,384.946673 538.4325,383.72 C539.632506,382.493327 540.2325,380.88001 540.2325,378.88 C540.2325,376.87999 539.619173,375.240006 538.3925,373.96 C537.165827,372.679994 535.539177,372.04 533.5125,372.04 L525.0325,372.04 L525.0325,385.56 Z" id="CAPITAINE-WP" fill="#FFFFFF"></path>
    </g>
</svg>